<?xml version="1.0" encoding="UTF-8"?>
<svg id="Layer_1" data-name="Layer 1" xmlns="http://www.w3.org/2000/svg" viewBox="0 0 792 612">
  <defs>
    <style>
      .cls-1 {
        fill: #d8cdff;
      }

      .cls-1, .cls-2, .cls-3, .cls-4, .cls-5, .cls-6, .cls-7, .cls-8, .cls-9, .cls-10, .cls-11, .cls-12, .cls-13, .cls-14, .cls-15, .cls-16, .cls-17, .cls-18, .cls-19, .cls-20, .cls-21 {
        stroke-miterlimit: 10;
      }

      .cls-1, .cls-2, .cls-5, .cls-7, .cls-10, .cls-13, .cls-19 {
        stroke: #6905ff;
      }

      .cls-2 {
        fill: #803bff;
      }

      .cls-3, .cls-4, .cls-6, .cls-8, .cls-11, .cls-14, .cls-18 {
        stroke-width: 2px;
      }

      .cls-3, .cls-6, .cls-22 {
        fill: #fff;
      }

      .cls-3, .cls-14 {
        stroke: #a6a8ab;
      }

      .cls-4 {
        stroke: #d1d3d4;
      }

      .cls-4, .cls-14, .cls-18 {
        fill: none;
      }

      .cls-5 {
        fill: #eae4ff;
      }

      .cls-6, .cls-8, .cls-18 {
        stroke: #808285;
      }

      .cls-23 {
        fill: #808285;
      }

      .cls-23, .cls-22, .cls-24, .cls-25, .cls-26 {
        stroke-width: 0px;
      }

      .cls-7 {
        fill: #f3f0ff;
      }

      .cls-8 {
        fill: #c4c5c6;
      }

      .cls-9 {
        fill: #e0f3fc;
      }

      .cls-9, .cls-12, .cls-15, .cls-16, .cls-17, .cls-20, .cls-21 {
        stroke: #006da7;
      }

      .cls-10 {
        fill: #7414ff;
      }

      .cls-11 {
        isolation: isolate;
        opacity: .7;
        stroke: #a7a9ac;
      }

      .cls-11, .cls-25 {
        fill: #d1d3d4;
      }

      .cls-12 {
        fill: #54c1ee;
      }

      .cls-13 {
        fill: #bca6ff;
      }

      .cls-24 {
        fill: #a7a9ac;
      }

      .cls-15 {
        fill: #0f87c9;
      }

      .cls-16 {
        fill: #bae5fa;
      }

      .cls-26 {
        fill: #d0d2d3;
        opacity: .5;
      }

      .cls-17 {
        fill: #7ed2f6;
      }

      .cls-19 {
        fill: #9c73ff;
      }

      .cls-20 {
        fill: #eff8fd;
      }

      .cls-21 {
        fill: #32a6de;
      }
    </style>
  </defs>
  <path class="cls-25" d="m626.77,307.41l-275.42,159.01c-6.9,3.99-18.96,3.49-26.93-1.12l-179.03-103.37c-7.97-4.6-8.84-11.56-1.93-15.55l275.42-159.01c6.9-3.99,18.96-3.49,26.93,1.12l179.03,103.37c7.97,4.6,8.84,11.56,1.93,15.55Z"/>
  <path class="cls-11" d="m626.77,287.2l-275.42,159.01c-6.9,3.99-18.96,3.49-26.93-1.12l-179.03-103.37c-7.97-4.6-8.84-11.56-1.93-15.55l275.42-159.01c6.9-3.99,18.96-3.49,26.93,1.12l179.03,103.37c7.97,4.6,8.84,11.56,1.93,15.55h0Z"/>
  <g>
    <path class="cls-22" d="m626.77,265.6l-275.42,159.01c-6.9,3.99-18.96,3.49-26.93-1.12l-179.03-103.37c-7.97-4.6-8.84-11.56-1.93-15.55l275.42-159.01c6.9-3.99,18.96-3.49,26.93,1.12l179.03,103.37c7.97,4.6,8.84,11.56,1.93,15.55Z"/>
    <line class="cls-4" x1="153.81" y1="325" x2="454.23" y2="151.56"/>
    <path class="cls-23" d="m161.51,313.26h0c-1.78,1.03-4.89.9-6.95-.29h0c-2.06-1.19-2.28-2.98-.5-4.01h0c1.78-1.03,4.89-.9,6.95.29h0c2.06,1.19,2.28,2.98.5,4.01Z"/>
    <path class="cls-24" d="m173.24,306.49h0c-1.78,1.03-4.89.9-6.95-.29h0c-2.06-1.19-2.28-2.98-.5-4.01h0c1.78-1.03,4.89-.9,6.95.29h0c2.06,1.19,2.28,2.98.5,4.01Z"/>
    <path class="cls-25" d="m184.96,299.72h0c-1.78,1.03-4.89.9-6.95-.29h0c-2.06-1.19-2.28-2.98-.5-4.01h0c1.78-1.03,4.89-.9,6.95.29h0c2.06,1.19,2.28,2.98.5,4.01Z"/>
    <line class="cls-4" x1="209.92" y1="292.12" x2="395.38" y2="399.2"/>
    <polygon class="cls-24" points="463.97 170.38 239.13 300.19 232.78 296.52 457.62 166.71 463.97 170.38"/>
    <polygon class="cls-24" points="462.7 187.98 253.74 308.62 247.39 304.96 456.35 184.31 462.7 187.98"/>
    <polygon class="cls-24" points="537.01 212.55 312.17 342.36 305.82 338.69 530.66 208.88 537.01 212.55"/>
    <polygon class="cls-24" points="507.79 195.68 282.96 325.49 276.61 321.83 501.44 192.02 507.79 195.68"/>
    <polygon class="cls-24" points="396.65 276.72 297.57 333.93 291.21 330.26 390.3 273.06 396.65 276.72"/>
    <polygon class="cls-24" points="425.86 293.59 326.78 350.79 320.43 347.13 419.51 289.92 425.86 293.59"/>
    <polygon class="cls-24" points="223.89 308.99 181.97 333.19 175.62 329.53 217.54 305.32 223.89 308.99"/>
    <polygon class="cls-24" points="238.5 317.43 196.58 341.63 190.23 337.96 232.15 313.76 238.5 317.43"/>
    <path class="cls-18" d="m626.77,265.6l-275.42,159.01c-6.9,3.99-18.96,3.49-26.93-1.12l-179.03-103.37c-7.97-4.6-8.84-11.56-1.93-15.55l275.42-159.01c6.9-3.99,18.96-3.49,26.93,1.12l179.03,103.37c7.97,4.6,8.84,11.56,1.93,15.55Z"/>
  </g>
  <g>
    <path class="cls-26" d="m612.95,231.57l-254.44,146.9c-6.18,3.57-16.98,3.12-24.11-1l-43.08-24.87c-7.14-4.12-7.91-10.35-1.73-13.92l254.44-146.9c6.18-3.57,16.98-3.12,24.11,1l43.08,24.87c7.14,4.12,7.91,10.35,1.73,13.92Z"/>
    <g>
      <path class="cls-3" d="m615.26,188.04c-.61.64-1.38,1.23-2.3,1.77l-246.76,142.46-7.68,4.43c-6.18,3.57-16.98,3.12-24.11-.99l-43.08-24.88c-1.72-.99-3.07-2.11-4.04-3.28.61-.64,1.39-1.23,2.31-1.77l8.96-5.17,3.12-1.81,3.28-1.89,14.56-8.4,22.51-12.99h0s12.54-7.24,12.54-7.24h0l22.5-12.99h0s12.54-7.24,12.54-7.24h0l22.5-12.99h0l12.54-7.24,22.52-13,12.53-7.24,22.51-12.99s0,0,0,0l12.54-7.24h0l22.5-12.99h0l12.54-7.24h0l14.2-8.2c6.18-3.57,16.98-3.12,24.11,1l38.3,22.11,4.79,2.76c1.72.99,3.07,2.11,4.04,3.28Z"/>
      <g>
        <path class="cls-6" d="m617.13,183.75c0,1.52-.62,2.99-1.87,4.29-.61.64-1.38,1.23-2.3,1.77l-246.76,142.46-7.68,4.43c-6.18,3.57-16.98,3.12-24.11-.99l-43.08-24.88c-1.72-.99-3.07-2.11-4.04-3.28-1.23-1.49-1.86-3.07-1.86-4.6,0-2.27,1.37-4.43,4.17-6.05l7.68-4.43,246.76-142.46c6.18-3.57,16.98-3.12,24.11,1l43.08,24.87c3.9,2.26,5.9,5.14,5.9,7.88Z"/>
        <path class="cls-16" d="m463.6,267.8l-17.25,9.96c-4.05,2.34-11.12,2.04-15.8-.65l-37.74-21.79c-4.68-2.7-5.18-6.78-1.13-9.12l17.25-9.96c4.05-2.34,11.12-2.04,15.8.65l37.74,21.79c4.68,2.7,5.18,6.78,1.13,9.12Z"/>
        <path class="cls-9" d="m428.55,288.03l-17.25,9.96c-4.05,2.34-11.12,2.04-15.8-.65l-37.74-21.79c-4.68-2.7-5.18-6.78-1.13-9.12l17.25-9.96c4.05-2.34,11.12-2.04,15.8.65l37.74,21.79c4.68,2.7,5.18,6.78,1.13,9.12Z"/>
        <path class="cls-20" d="m393.5,308.27l-17.25,9.96c-4.05,2.34-11.12,2.04-15.8-.65l-37.74-21.79c-4.68-2.7-5.18-6.78-1.13-9.12l17.25-9.96c4.05-2.34,11.12-2.04,15.8.65l37.74,21.79c4.68,2.7,5.18,6.78,1.13,9.12Z"/>
        <path class="cls-17" d="m498.66,247.56l-17.25,9.96c-4.05,2.34-11.12,2.04-15.8-.65l-37.74-21.79c-4.68-2.7-5.18-6.78-1.13-9.12l17.25-9.96c4.05-2.34,11.12-2.04,15.8.65l37.74,21.79c4.68,2.7,5.18,6.78,1.13,9.12Z"/>
        <path class="cls-12" d="m533.71,227.32l-17.25,9.96c-4.05,2.34-11.12,2.04-15.8-.65l-37.74-21.79c-4.68-2.7-5.18-6.78-1.13-9.12l17.25-9.96c4.05-2.34,11.12-2.04,15.8.65l37.74,21.79c4.68,2.7,5.18,6.78,1.13,9.12Z"/>
        <path class="cls-21" d="m568.76,207.09l-17.25,9.96c-4.05,2.34-11.12,2.04-15.8-.65l-37.74-21.79c-4.68-2.7-5.18-6.78-1.13-9.12l17.25-9.96c4.05-2.34,11.12-2.04,15.8.65l37.74,21.79c4.68,2.7,5.18,6.78,1.13,9.12Z"/>
        <path class="cls-15" d="m603.81,186.85l-17.25,9.96c-4.05,2.34-11.12,2.04-15.8-.65l-37.74-21.79c-4.68-2.7-5.18-6.78-1.13-9.12l17.25-9.96c4.05-2.34,11.12-2.04,15.8.65l37.74,21.79c4.68,2.7,5.18,6.78,1.13,9.12Z"/>
        <line class="cls-18" x1="297.26" y1="292.47" x2="366.19" y2="332.27"/>
        <ellipse class="cls-23" cx="299.55" cy="299.38" rx="1.42" ry="2.51" transform="translate(-33.88 560.51) rotate(-83.05)"/>
        <ellipse class="cls-23" cx="354.22" cy="330.95" rx="1.42" ry="2.51" transform="translate(-17.15 642.53) rotate(-83.05)"/>
      </g>
      <line class="cls-14" x1="285.42" y1="312.37" x2="285.42" y2="311.83"/>
      <line class="cls-14" x1="285.42" y1="302.95" x2="285.42" y2="301.95"/>
      <path class="cls-8" d="m617.13,183.75v8.89c0,2.26-1.37,4.43-4.17,6.04l-254.43,146.9c-6.18,3.57-16.98,3.12-24.11-1l-43.08-24.88c-3.9-2.26-5.9-5.14-5.9-7.88v-8.88c0,1.53.62,3.1,1.86,4.6.97,1.17,2.32,2.29,4.04,3.28l43.08,24.88c7.13,4.12,17.93,4.57,24.11.99l7.68-4.43,246.76-142.46c.93-.54,1.7-1.13,2.3-1.77,1.25-1.29,1.87-2.76,1.87-4.29Z"/>
    </g>
  </g>
  <g>
    <path class="cls-26" d="m566.04,356.34l-254.44,146.9c-6.18,3.57-16.98,3.12-24.11-1l-43.08-24.87c-7.14-4.12-7.91-10.35-1.73-13.92l254.44-146.9c6.18-3.57,16.98-3.12,24.11,1l43.08,24.87c7.14,4.12,7.91,10.35,1.73,13.92Z"/>
    <g>
      <path class="cls-3" d="m568.34,312.8c-.61.64-1.38,1.23-2.3,1.77l-246.76,142.46-7.68,4.43c-6.18,3.57-16.98,3.12-24.11-.99l-43.08-24.88c-1.72-.99-3.07-2.11-4.04-3.28.61-.64,1.39-1.23,2.31-1.77l8.96-5.17,3.12-1.81,3.28-1.89,14.56-8.4,22.51-12.99h0s12.54-7.24,12.54-7.24h0l22.5-12.99h0s12.54-7.24,12.54-7.24h0l22.5-12.99h0l12.54-7.24,22.52-13,12.53-7.24,22.51-12.99s0,0,0,0l12.54-7.24h0l22.5-12.99h0l12.54-7.24h0l14.2-8.2c6.18-3.57,16.98-3.12,24.11,1l38.3,22.11,4.79,2.76c1.72.99,3.07,2.11,4.04,3.28Z"/>
      <g>
        <path class="cls-6" d="m570.21,308.52c0,1.52-.62,2.99-1.87,4.29-.61.64-1.38,1.23-2.3,1.77l-246.76,142.46-7.68,4.43c-6.18,3.57-16.98,3.12-24.11-.99l-43.08-24.88c-1.72-.99-3.07-2.11-4.04-3.28-1.23-1.49-1.86-3.07-1.86-4.6,0-2.27,1.37-4.43,4.17-6.05l7.68-4.43,246.76-142.46c6.18-3.57,16.98-3.12,24.11,1l43.08,24.87c3.9,2.26,5.9,5.14,5.9,7.88Z"/>
        <path class="cls-1" d="m416.69,392.57l-17.25,9.96c-4.05,2.34-11.12,2.04-15.8-.65l-37.74-21.79c-4.68-2.7-5.18-6.78-1.13-9.12l17.25-9.96c4.05-2.34,11.12-2.04,15.8.65l37.74,21.79c4.68,2.7,5.18,6.78,1.13,9.12Z"/>
        <path class="cls-5" d="m381.64,412.8l-17.25,9.96c-4.05,2.34-11.12,2.04-15.8-.65l-37.74-21.79c-4.68-2.7-5.18-6.78-1.13-9.12l17.25-9.96c4.05-2.34,11.12-2.04,15.8.65l37.74,21.79c4.68,2.7,5.18,6.78,1.13,9.12Z"/>
        <path class="cls-7" d="m346.58,433.04l-17.25,9.96c-4.05,2.34-11.12,2.04-15.8-.65l-37.74-21.79c-4.68-2.7-5.18-6.78-1.13-9.12l17.25-9.96c4.05-2.34,11.12-2.04,15.8.65l37.74,21.79c4.68,2.7,5.18,6.78,1.13,9.12Z"/>
        <path class="cls-13" d="m451.74,372.33l-17.25,9.96c-4.05,2.34-11.12,2.04-15.8-.65l-37.74-21.79c-4.68-2.7-5.18-6.78-1.13-9.12l17.25-9.96c4.05-2.34,11.12-2.04,15.8.65l37.74,21.79c4.68,2.7,5.18,6.78,1.13,9.12Z"/>
        <path class="cls-19" d="m486.79,352.09l-17.25,9.96c-4.05,2.34-11.12,2.04-15.8-.65l-37.74-21.79c-4.68-2.7-5.18-6.78-1.13-9.12l17.25-9.96c4.05-2.34,11.12-2.04,15.8.65l37.74,21.79c4.68,2.7,5.18,6.78,1.13,9.12Z"/>
        <path class="cls-2" d="m521.84,331.85l-17.25,9.96c-4.05,2.34-11.12,2.04-15.8-.65l-37.74-21.79c-4.68-2.7-5.18-6.78-1.13-9.12l17.25-9.96c4.05-2.34,11.12-2.04,15.8.65l37.74,21.79c4.68,2.7,5.18,6.78,1.13,9.12Z"/>
        <path class="cls-10" d="m556.89,311.62l-17.25,9.96c-4.05,2.34-11.12,2.04-15.8-.65l-37.74-21.79c-4.68-2.7-5.18-6.78-1.13-9.12l17.25-9.96c4.05-2.34,11.12-2.04,15.8.65l37.74,21.79c4.68,2.7,5.18,6.78,1.13,9.12Z"/>
        <line class="cls-18" x1="250.35" y1="417.24" x2="319.28" y2="457.04"/>
        <ellipse class="cls-23" cx="252.63" cy="424.15" rx="1.42" ry="2.51" transform="translate(-198.97 623.61) rotate(-83.05)"/>
        <ellipse class="cls-23" cx="307.3" cy="455.72" rx="1.42" ry="2.51" transform="translate(-182.24 705.63) rotate(-83.05)"/>
      </g>
      <line class="cls-14" x1="238.5" y1="437.14" x2="238.5" y2="436.59"/>
      <line class="cls-14" x1="238.5" y1="427.72" x2="238.5" y2="426.71"/>
      <path class="cls-8" d="m570.21,308.52v8.89c0,2.26-1.37,4.43-4.17,6.04l-254.43,146.9c-6.18,3.57-16.98,3.12-24.11-1l-43.08-24.88c-3.9-2.26-5.9-5.14-5.9-7.88v-8.88c0,1.53.62,3.1,1.86,4.6.97,1.17,2.32,2.29,4.04,3.28l43.08,24.88c7.13,4.12,17.93,4.57,24.11.99l7.68-4.43,246.76-142.46c.93-.54,1.7-1.13,2.3-1.77,1.25-1.29,1.87-2.76,1.87-4.29Z"/>
    </g>
  </g>
</svg>