<?xml version="1.0" encoding="UTF-8"?>
<svg id="Layer_1" data-name="Layer 1" xmlns="http://www.w3.org/2000/svg" viewBox="0 0 792 612">
  <defs>
    <style>
      .cls-1 {
        opacity: .7;
        stroke: #a7a9ac;
      }

      .cls-1, .cls-2, .cls-3, .cls-4, .cls-5, .cls-6, .cls-7 {
        stroke-miterlimit: 10;
        stroke-width: 2px;
      }

      .cls-1, .cls-8 {
        fill: #d1d3d4;
      }

      .cls-2, .cls-4 {
        stroke: #d1d3d4;
      }

      .cls-2, .cls-6 {
        fill: none;
      }

      .cls-9 {
        letter-spacing: -.03em;
      }

      .cls-10 {
        opacity: .5;
      }

      .cls-11, .cls-12, .cls-13, .cls-14, .cls-8, .cls-15 {
        stroke-width: 0px;
      }

      .cls-11, .cls-5 {
        fill: #7dd3f7;
      }

      .cls-16 {
        font-family: NotoSansSC-Bold, 'Noto Sans SC';
        font-size: 27.71px;
        font-variation-settings: 'wght' 700;
        font-weight: 700;
      }

      .cls-16, .cls-4, .cls-13, .cls-7 {
        fill: #fff;
      }

      .cls-12 {
        fill: #808285;
      }

      .cls-3 {
        fill: #e6e7e8;
      }

      .cls-3, .cls-5, .cls-7 {
        stroke: #33a6de;
      }

      .cls-17 {
        letter-spacing: -.02em;
      }

      .cls-14 {
        fill: #a7a9ac;
      }

      .cls-15 {
        fill: #33a6de;
      }

      .cls-6 {
        stroke: #808285;
      }
    </style>
  </defs>
  <path class="cls-8" d="m626.77,307.41l-275.42,159.01c-6.9,3.99-18.96,3.49-26.93-1.12l-179.03-103.37c-7.97-4.6-8.84-11.56-1.93-15.55l275.42-159.01c6.9-3.99,18.96-3.49,26.93,1.12l179.03,103.37c7.97,4.6,8.84,11.56,1.93,15.55Z"/>
  <path class="cls-1" d="m626.77,287.2l-275.42,159.01c-6.9,3.99-18.96,3.49-26.93-1.12l-179.03-103.37c-7.97-4.6-8.84-11.56-1.93-15.55l275.42-159.01c6.9-3.99,18.96-3.49,26.93,1.12l179.03,103.37c7.97,4.6,8.84,11.56,1.93,15.55Z"/>
  <g>
    <path class="cls-13" d="m626.77,265.6l-275.42,159.01c-6.9,3.99-18.96,3.49-26.93-1.12l-179.03-103.37c-7.97-4.6-8.84-11.56-1.93-15.55l275.42-159.01c6.9-3.99,18.96-3.49,26.93,1.12l179.03,103.37c7.97,4.6,8.84,11.56,1.93,15.55Z"/>
    <line class="cls-2" x1="153.81" y1="325" x2="454.23" y2="151.56"/>
    <path class="cls-12" d="m161.51,313.26h0c-1.78,1.03-4.89.9-6.95-.29h0c-2.06-1.19-2.28-2.98-.5-4.01h0c1.78-1.03,4.89-.9,6.95.29h0c2.06,1.19,2.28,2.98.5,4.01Z"/>
    <path class="cls-14" d="m173.24,306.49h0c-1.78,1.03-4.89.9-6.95-.29h0c-2.06-1.19-2.28-2.98-.5-4.01h0c1.78-1.03,4.89-.9,6.95.29h0c2.06,1.19,2.28,2.98.5,4.01Z"/>
    <path class="cls-8" d="m184.96,299.72h0c-1.78,1.03-4.89.9-6.95-.29h0c-2.06-1.19-2.28-2.98-.5-4.01h0c1.78-1.03,4.89-.9,6.95.29h0c2.06,1.19,2.28,2.98.5,4.01Z"/>
    <line class="cls-2" x1="209.92" y1="292.12" x2="395.38" y2="399.2"/>
    <polygon class="cls-14" points="463.97 170.38 239.13 300.19 232.78 296.52 457.62 166.71 463.97 170.38"/>
    <polygon class="cls-14" points="462.7 187.98 253.74 308.62 247.39 304.96 456.35 184.31 462.7 187.98"/>
    <polygon class="cls-14" points="537.01 212.55 312.17 342.36 305.82 338.69 530.66 208.88 537.01 212.55"/>
    <polygon class="cls-14" points="507.79 195.68 282.96 325.49 276.61 321.83 501.44 192.02 507.79 195.68"/>
    <polygon class="cls-14" points="396.65 276.72 297.57 333.93 291.21 330.26 390.3 273.06 396.65 276.72"/>
    <polygon class="cls-14" points="425.86 293.59 326.78 350.79 320.43 347.13 419.51 289.92 425.86 293.59"/>
    <polygon class="cls-14" points="223.89 308.99 181.97 333.19 175.62 329.53 217.54 305.32 223.89 308.99"/>
    <polygon class="cls-14" points="238.5 317.43 196.58 341.63 190.23 337.96 232.15 313.76 238.5 317.43"/>
    <path class="cls-6" d="m626.77,265.6l-275.42,159.01c-6.9,3.99-18.96,3.49-26.93-1.12l-179.03-103.37c-7.97-4.6-8.84-11.56-1.93-15.55l275.42-159.01c6.9-3.99,18.96-3.49,26.93,1.12l179.03,103.37c7.97,4.6,8.84,11.56,1.93,15.55Z"/>
  </g>
  <g>
    <g class="cls-10">
      <path class="cls-8" d="m350.3,231.47l-95.54,55.16c-12.4,7.16-34.05,6.26-48.37-2h0c-14.32-8.27-15.87-20.77-3.47-27.93l95.54-55.16c12.4-7.16,34.05-6.26,48.37,2h0c14.32,8.27,15.87,20.77,3.47,27.93Z"/>
    </g>
    <g>
      <path class="cls-5" d="m350.3,196.83l-95.54,55.16c-12.4,7.16-34.05,6.26-48.37-2h0c-14.32-8.27-15.87-20.77-3.47-27.93l95.54-55.16c12.4-7.16,34.05-6.26,48.37,2h0c14.32,8.27,15.87,20.77,3.47,27.93Z"/>
      <text class="cls-16" transform="translate(249.9 234.52) rotate(-30) scale(.87) skewX(30)"><tspan x="0" y="0">Bu</tspan><tspan class="cls-9" x="36.53" y="0">t</tspan><tspan class="cls-17" x="47.42" y="0">t</tspan><tspan x="58.39" y="0">on</tspan></text>
    </g>
  </g>
  <g>
    <g class="cls-10">
      <path class="cls-8" d="m558.51,228.15l-101.02,58.33c-6.28,3.63-17.26,3.17-24.51-1.02h0c-7.25-4.19-8.04-10.52-1.76-14.15l101.02-58.33c6.28-3.63,17.26-3.17,24.51,1.02h0c7.25,4.19,8.04,10.52,1.76,14.15Z"/>
      <path class="cls-8" d="m678.97,297.7l-101.02,58.33c-6.28,3.63-17.26,3.17-24.51-1.02l-87.97-50.79c-7.25-4.19-8.04-10.52-1.76-14.15l101.02-58.33c6.28-3.63,17.26-3.17,24.51,1.02l87.97,50.79c7.25,4.19,8.04,10.52,1.76,14.15Z"/>
    </g>
    <g>
      <path class="cls-7" d="m558.51,210.38l-101.02,58.33c-6.28,3.63-17.26,3.17-24.51-1.02h0c-7.25-4.19-8.04-10.52-1.76-14.15l101.02-58.33c6.28-3.63,17.26-3.17,24.51,1.02h0c7.25,4.19,8.04,10.52,1.76,14.15Z"/>
      <path class="cls-4" d="m678.97,279.93l-101.02,58.33c-6.28,3.63-17.26,3.17-24.51-1.02l-87.97-50.79c-7.25-4.19-8.04-10.52-1.76-14.15l101.02-58.33c6.28-3.63,17.26-3.17,24.51,1.02l87.97,50.79c7.25,4.19,8.04,10.52,1.76,14.15Z"/>
      <path class="cls-14" d="m545.2,202.02l.46,3.67c.03.22-.26.39-.65.38l-6.36-.26c-.63-.03-1-.48-.58-.72l5.9-3.41c.41-.24,1.19-.02,1.24.34Z"/>
      <path class="cls-11" d="m590.42,230.34l-98.37,56.79c-1.29.75-3.56.65-5.05-.21l-9.65-5.57c-1.49-.86-1.66-2.17-.36-2.92l98.37-56.79c1.29-.75,3.56-.65,5.05.21l9.65,5.57c1.49.86,1.66,2.17.36,2.92Z"/>
      <path class="cls-8" d="m609.63,241.43l-98.37,56.79c-1.29.75-3.56.65-5.05-.21h0c-1.49-.86-1.66-2.17-.36-2.92l98.37-56.79c1.29-.75,3.56-.65,5.05.21h0c1.49.86,1.66,2.17.36,2.92Z"/>
      <path class="cls-8" d="m632.86,254.84l-98.37,56.79c-1.29.75-3.56.65-5.05-.21h0c-1.49-.86-1.66-2.17-.36-2.92l98.37-56.79c1.29-.75,3.56-.65,5.05.21h0c1.49.86,1.66,2.17.36,2.92Z"/>
      <path class="cls-8" d="m656.09,268.25l-98.37,56.79c-1.29.75-3.56.65-5.05-.21h0c-1.49-.86-1.66-2.17-.36-2.92l98.37-56.79c1.29-.75,3.56-.65,5.05.21h0c1.49.86,1.66,2.17.36,2.92Z"/>
    </g>
  </g>
  <g>
    <g class="cls-10">
      <path class="cls-8" d="m381.52,386.1l-63.92,36.91c-11.05,6.38-30.34,5.58-43.09-1.79h0c-12.75-7.36-14.14-18.5-3.09-24.88l63.92-36.91c11.05-6.38,30.34-5.58,43.09,1.79h0c12.75,7.36,14.14,18.5,3.09,24.88Z"/>
    </g>
    <g>
      <path class="cls-3" d="m381.52,375.73l-63.92,36.91c-11.05,6.38-30.34,5.58-43.09-1.79h0c-12.75-7.36-14.14-18.5-3.09-24.88l63.92-36.91c11.05-6.38,30.34-5.58,43.09,1.79h0c12.75,7.36,14.14,18.5,3.09,24.88Z"/>
      <path class="cls-15" d="m376.19,373.15h0c-8.71,5.03-23.91,4.4-33.96-1.41h0c-10.05-5.8-11.14-14.58-2.44-19.61h0c8.71-5.03,23.91-4.4,33.96,1.41h0c10.05,5.8,11.14,14.58,2.44,19.61Z"/>
    </g>
  </g>
</svg>