<?xml version="1.0" encoding="UTF-8"?>
<svg id="Layer_1" data-name="Layer 1" xmlns="http://www.w3.org/2000/svg" viewBox="0 0 765.01 181.4">
  <defs>
    <style>
      .cls-1 {
        fill: #163c91;
      }

      .cls-1, .cls-2, .cls-3, .cls-4, .cls-5, .cls-6, .cls-7, .cls-8, .cls-9 {
        stroke-width: 0px;
      }

      .cls-2 {
        fill: #75b834;
      }

      .cls-3 {
        fill: #ff7900;
      }

      .cls-4 {
        fill: #c50210;
      }

      .cls-6 {
        fill: #fff;
      }

      .cls-7 {
        fill: #ed0774;
      }

      .cls-8 {
        fill: #862a8f;
      }

      .cls-9 {
        fill: #00cfff;
      }
    </style>
  </defs>
  <g>
    <path class="cls-6" d="m180.24,105.36c2.3,4.4,3.39,9.48,2.96,14.75-.31,3.84-.72,7.7-1.21,11.48-2.26,17.32-13.92,31.75-30.42,37.64-8.01,2.86-17.85,5.28-29.24,7.21-2.45.41-4.96.62-7.44.62-4.56,0-9.03-.71-13.28-2.05-3.08,3.01-7.13,4.87-11.58,5.18-3.54.26-7.18.48-10.79.64-.27.01-.53.02-.79.02-3.34,0-6.57-.95-9.34-2.67-4.52,1.97-9.51,3.05-14.72,3.05-.16,0-.74-.01-.74-.01-21.87-.38-41.23-15.35-47.08-36.39-3.31-11.93-5.5-27.2-6.31-44.17-.22-4.51.87-8.82,2.98-12.51C1.01,84.5-.11,80.29,0,75.9c.27-9.83.94-19.31,2.01-28.15C4.63,26.27,20.73,9.38,42.1,5.68l1.26-.21h.31c1.16-.14,2.33-.21,3.49-.21,3.4,0,6.75.59,9.9,1.72,3.17-2.7,7.12-4.43,11.37-4.85C81.58.82,94.85.16,107.89.16c10.15,0,20.05.41,29.45,1.21l.77.06c6.27.57,11.88,3.91,15.38,9.16.12.18.24.36.35.55,7.11.51,13.54,4.29,17.44,10.33,2.43,3.76,4.27,7.88,5.48,12.24,4.44,16.13,7.04,37.22,7.33,59.39.06,4.46-1.29,8.71-3.85,12.26Z"/>
    <path class="cls-3" d="m72.97,72.41c-17.02,7.12-38.07,10.31-49.57,11.61-4.55.52-8.52-3.12-8.39-7.71.25-9.44.92-18.57,1.91-26.76,1.79-14.77,13.07-26.56,27.73-29.09h.08c4.84-.83,9.77.86,13.11,4.47,5.53,5.98,14.02,16.76,21.03,32.72,2.51,5.71-.14,12.38-5.88,14.79v-.02h0Z"/>
    <path class="cls-7" d="m141.7,23.85c-1.89,5.99-6.51,16.32-17.84,31.08-2.14,2.8-4.9,5.08-8.09,6.6-4.12,1.96-9.41,3.13-17.68,3.48-3.61.15-7.08-1.43-9.33-4.26-12.62-15.9-19.72-28.31-23.33-35.59-1.75-3.53.57-7.71,4.48-8.1,22.06-2.2,45.33-2.57,66.77-.69h.07c3.65.33,6.05,3.99,4.95,7.49h0Z"/>
    <path class="cls-8" d="m162.65,98.91c-7.84-1.2-21.73-3.77-35.47-8.44-5.59-1.9-8.31-8.22-5.88-13.61,11.63-25.74,19.52-39.77,24.29-47.2,3.05-4.76,10.02-4.79,13.09-.04,1.59,2.45,2.81,5.17,3.62,8.09,4.11,14.93,6.53,35.11,6.79,55.59.04,3.46-3.03,6.14-6.44,5.61Z"/>
    <path class="cls-1" d="m159.83,106.39c5.38,1.7,8.88,6.88,8.42,12.5-.3,3.65-.68,7.25-1.14,10.75-1.53,11.68-9.5,21.5-20.59,25.46-7.53,2.69-16.71,4.86-26.69,6.54-11.82,1.99-23.72-3.31-29.97-13.54-.07-.12-.14-.23-.21-.35-1.79-2.99-2.13-6.64-.95-9.92,4.09-11.46,11.78-25.12,17.51-34.04,3.51-5.46,10-8.23,16.38-6.99,14.73,2.86,28.6,6.87,37.23,9.58h0Z"/>
    <path class="cls-4" d="m113.81,81.71c-2.62,8.49-8.75,18.54-23.99,40.33-4.79,6.85-14.63,7.66-20.47,1.69-9.6-9.82-14.61-15.34-19.56-21.76-5.23-6.78-2.36-16.68,5.69-19.62,25.21-9.18,36.95-12.56,48.12-13.42,6.99-.54,12.28,6.09,10.22,12.78h0Z"/>
    <path class="cls-9" d="m88.97,165.24c-3.48.25-6.95.46-10.39.61-1.92.08-3.31-1.8-2.67-3.6.82-2.35,2.14-5.41,4.04-7.97,1.35-1.81,3.91-2.21,5.76-.92,2.77,1.93,4.71,4.39,6.01,6.54s-.12,5.15-2.75,5.33h0Z"/>
    <path class="cls-2" d="m75.02,150.6c-.05.19-.11.4-.17.59-2.77,9.1-11.33,15.19-20.83,15.03h-.1c-15.36-.27-28.78-10.61-32.89-25.41-3.23-11.62-5.07-26.02-5.78-40.87-.18-3.68,2.17-7.02,5.71-8.04.06-.02.12-.03.19-.05,4.77-1.34,9.9-.33,13.83,2.69,16.25,12.5,26.93,27.55,38.4,45.47,2.01,3.14,2.65,6.99,1.66,10.59h0Z"/>
  </g>
  <g>
    <path class="cls-6" d="m765.01,75.94c0,6.24-1.37,11.72-3.9,16.22,2.53,4.5,3.9,9.98,3.9,16.22v53.02c0,11.05-8.95,20-20,20h-24.32c-6.22,0-11.67-1.42-16.14-4.04-3.92,2.56-8.6,4.04-13.62,4.04H241.16c-19.33,0-35-15.67-35-35V20c0-11.05,8.95-20,20-20h115.99c7.23,0,13.96,2.2,19.55,5.98,4.91-3.85,11.37-5.98,18.97-5.98h155.31c7.28,0,14.05,2.23,19.66,6.05,4.91-3.9,11.4-6.05,19.06-6.05h116.23c5.02,0,9.7,1.49,13.62,4.05C709.02,1.43,714.47,0,720.69,0h24.32c11.05,0,20,8.95,20,20v55.93Z"/>
    <path class="cls-5" d="m459.07,138.34v28.06h-120.59c-11.05,0-20-8.95-20-20V55.97c0-1.87-.62-2.7-2.29-2.91h0c-1.26,0-2.28,1.02-2.28,2.28v111.06h-23.67c-11.05,0-20-8.95-20-20V55.35c-.21-1.46-1.04-1.88-2.29-2.08h0c-1.72,0-3.12,1.4-3.12,3.12v110.01h-23.67c-11.05,0-20-8.95-20-20V15h120.99c11.05,0,20,8.95,20,20v78.59c0,8.15,6.6,14.75,14.75,14.75h72.17c5.52,0,10,4.48,10,10Z"/>
    <path class="cls-5" d="m444.72,15h-64.05c-9.98,0-14.35,5.62-14.35,14.77v79.23c0,9.15,4.37,14.77,14.35,14.77h64.05c9.98,0,14.35-5.62,14.35-14.77V29.77c0-9.15-4.37-14.77-14.35-14.77Zm-29.32,72.16c0,1.67-.83,2.92-2.71,2.92s-2.7-1.25-2.7-2.92v-35.56c0-1.87.83-2.91,2.7-2.91s2.71,1.04,2.71,2.91v35.56Z"/>
    <path class="cls-5" d="m653.1,138.34v28.06h-189.87v-78.99c0-11.05,8.95-20,20-20h26.37c1.49,0,2.7-1.21,2.7-2.7v-8.73c0-1.49-1.21-2.7-2.7-2.7h0c-1.49,0-2.7,1.21-2.7,2.7v6.02h-33.67c-5.52,0-10-4.48-10-10V15h72.75c11.05,0,20,8.95,20,20v70.47h-46.58c-1.38,0-2.5,1.12-2.5,2.5v17.25c0,2.29.83,2.91,2.91,2.91h0c1.38,0,2.5-1.12,2.5-2.5v-15.59h43.67v2.56c0,8.69,7.05,15.74,15.74,15.74h71.38c5.52,0,10,4.48,10,10Z"/>
    <path class="cls-5" d="m606.1,48.69h47v-23.69c0-5.52-4.48-10-10-10h-68.4c-9.98,0-14.35,5.62-14.35,14.77v79.23c0,9.15,4.37,14.77,14.35,14.77h78.4v-23.69c0-5.52-4.48-10-10-10h-37c-1.25,0-2.08-.63-2.08-2.08h0c0-1.38,1.12-2.5,2.5-2.5h46.58v-22.23c0-5.52-4.48-10-10-10h-36.58c-1.38,0-2.5-1.12-2.5-2.5h0c0-1.45.83-2.08,2.08-2.08Z"/>
    <path class="cls-5" d="m703.43,102.35h0c-1.38,0-2.5,1.12-2.5,2.5v51.56c0,5.52-4.48,10-10,10h-33.67V15.01h33.67c5.52,0,10,4.48,10,10v57.38c0,1.38,1.12,2.5,2.5,2.5h0c1.66,0,2.7-.42,2.91-2.08V29.77c0-9.15,4.37-14.77,14.35-14.77h29.32v60.93c0,9.15-4.37,14.77-14.35,14.77h-6.27c-.8,0-1.46.65-1.46,1.46h0c0,.8.65,1.46,1.46,1.46h6.27c9.98,0,14.35,5.62,14.35,14.77v58.02h-29.32c-9.98,0-14.35-5.62-14.35-14.77v-46.38c0-2.29-.83-2.91-2.91-2.91Z"/>
  </g>
</svg>