<?xml version="1.0" encoding="UTF-8"?>
<svg id="Layer_1" data-name="Layer 1" xmlns="http://www.w3.org/2000/svg" viewBox="0 0 751.69 737.04">
  <defs>
    <style>
      .cls-1 {
        fill: #163c91;
      }

      .cls-1, .cls-2, .cls-3, .cls-4, .cls-5, .cls-6, .cls-7 {
        stroke-width: 0px;
      }

      .cls-2 {
        fill: #75b834;
      }

      .cls-3 {
        fill: #ff7900;
      }

      .cls-4 {
        fill: #c50210;
      }

      .cls-5 {
        fill: #ed0774;
      }

      .cls-6 {
        fill: #862a8f;
      }

      .cls-7 {
        fill: #00cfff;
      }
    </style>
  </defs>
  <path class="cls-3" d="m282.77,279.35c-83.06,34.75-185.68,50.31-241.81,56.65C18.73,338.51-.59,320.76.01,298.4c1.24-46.07,4.46-90.59,9.31-130.58C18.07,95.77,73.09,38.26,144.59,25.91c.12-.02.24-.04.35-.06,23.61-4.06,47.65,4.21,63.92,21.79,26.98,29.14,68.39,81.78,102.61,159.58,12.24,27.83-.65,60.39-28.71,72.13Z"/>
  <path class="cls-5" d="m618.04,42.47c-9.22,29.21-31.78,79.59-87.02,151.63-10.46,13.64-23.9,24.79-39.44,32.16-20.08,9.54-45.9,15.25-86.26,16.98-17.6.75-34.53-6.98-45.49-20.78-61.59-77.54-96.18-138.09-113.83-173.63-8.54-17.19,2.75-37.65,21.86-39.55,107.62-10.72,221.13-12.55,325.73-3.36.11,0,.21.02.32.03,17.82,1.61,29.52,19.46,24.13,36.52Z"/>
  <path class="cls-6" d="m720.24,408.59c-38.25-5.87-106-18.39-173.04-41.16-27.27-9.26-40.52-40.14-28.66-66.38,56.76-125.57,95.25-194.02,118.5-230.28,14.89-23.22,48.89-23.37,63.86-.2,7.73,11.96,13.74,25.21,17.67,39.45,20.05,72.83,31.83,171.26,33.12,271.2.22,16.88-14.76,29.94-31.45,27.38Z"/>
  <path class="cls-1" d="m706.53,445.1c26.25,8.25,43.32,33.56,41.09,60.98-1.45,17.82-3.29,35.34-5.52,52.43-7.44,57-46.34,104.88-100.47,124.21-36.75,13.12-81.5,23.7-130.2,31.91-57.64,9.72-115.72-16.14-146.19-66.03-.34-.56-.68-1.12-1.02-1.69-8.71-14.61-10.37-32.37-4.65-48.39,19.98-55.92,57.44-122.53,85.43-166.05,17.13-26.63,48.81-40.16,79.9-34.13,71.83,13.93,139.5,33.5,181.64,46.75Z"/>
  <path class="cls-4" d="m481.99,324.72c-12.79,41.45-42.68,90.45-117.03,196.75-23.37,33.42-71.37,37.38-99.88,8.22-46.81-47.88-71.25-74.84-95.42-106.17-25.5-33.07-11.48-81.41,27.76-95.7,123.01-44.79,180.3-61.26,234.73-65.48,34.09-2.64,59.92,29.7,49.83,62.38Z"/>
  <path class="cls-7" d="m360.8,732.18c-16.96,1.23-33.91,2.23-50.72,3-9.35.43-16.13-8.76-13.03-17.59,4.03-11.47,10.44-26.39,19.7-38.87,6.57-8.86,19.07-10.79,28.12-4.49,13.51,9.42,22.97,21.44,29.31,31.94s-.59,25.09-13.39,26.02Z"/>
  <path class="cls-2" d="m292.78,660.81c-.27.97-.55,1.93-.84,2.88-13.51,44.36-55.27,74.12-101.63,73.34-.16,0-.32,0-.48,0-74.92-1.32-140.42-51.73-160.46-123.94-15.75-56.7-24.72-126.94-28.22-199.4-.87-17.94,10.58-34.24,27.83-39.19.3-.09.6-.17.9-.26,23.28-6.52,48.31-1.62,67.47,13.13,79.28,61.01,131.4,134.43,187.33,221.8,9.81,15.32,12.96,34.12,8.09,51.65Z"/>
</svg>