<?xml version="1.0" encoding="UTF-8"?>
<svg id="Layer_1" data-name="Layer 1" xmlns="http://www.w3.org/2000/svg" viewBox="0 0 792 612">
  <defs>
    <style>
      .cls-1 {
        stroke: #d1d3d4;
      }

      .cls-1, .cls-2, .cls-3, .cls-4, .cls-5, .cls-6, .cls-7 {
        stroke-miterlimit: 10;
      }

      .cls-1, .cls-2, .cls-4, .cls-6, .cls-7 {
        stroke-width: 2px;
      }

      .cls-1, .cls-3, .cls-7 {
        fill: none;
      }

      .cls-8 {
        opacity: .7;
      }

      .cls-8, .cls-9, .cls-10, .cls-11, .cls-12, .cls-13 {
        stroke-width: 0px;
      }

      .cls-8, .cls-4 {
        fill: #d0d2d3;
      }

      .cls-9 {
        fill: #808285;
      }

      .cls-2 {
        isolation: isolate;
        opacity: .7;
        stroke: #a7a9ac;
      }

      .cls-2, .cls-12 {
        fill: #d1d3d4;
      }

      .cls-3 {
        stroke-width: 5px;
      }

      .cls-3, .cls-6 {
        stroke: #808184;
      }

      .cls-4 {
        opacity: .5;
        stroke: #d0d2d3;
      }

      .cls-10, .cls-6 {
        fill: #fff;
      }

      .cls-11 {
        fill: #a7a9ac;
      }

      .cls-5 {
        fill: #7ed2f6;
        stroke: #32a6de;
        stroke-width: 10px;
      }

      .cls-13 {
        fill: #808184;
      }

      .cls-7 {
        stroke: #808285;
      }
    </style>
  </defs>
  <path class="cls-12" d="m626.77,307.41l-275.42,159.01c-6.9,3.99-18.96,3.49-26.93-1.12l-179.03-103.37c-7.97-4.6-8.84-11.56-1.93-15.55l275.42-159.01c6.9-3.99,18.96-3.49,26.93,1.12l179.03,103.37c7.97,4.6,8.84,11.56,1.93,15.55Z"/>
  <path class="cls-2" d="m626.77,287.2l-275.42,159.01c-6.9,3.99-18.96,3.49-26.93-1.12l-179.03-103.37c-7.97-4.6-8.84-11.56-1.93-15.55l275.42-159.01c6.9-3.99,18.96-3.49,26.93,1.12l179.03,103.37c7.97,4.6,8.84,11.56,1.93,15.55h0Z"/>
  <g>
    <path class="cls-10" d="m626.77,265.6l-275.42,159.01c-6.9,3.99-18.96,3.49-26.93-1.12l-179.03-103.37c-7.97-4.6-8.84-11.56-1.93-15.55l275.42-159.01c6.9-3.99,18.96-3.49,26.93,1.12l179.03,103.37c7.97,4.6,8.84,11.56,1.93,15.55Z"/>
    <line class="cls-1" x1="153.81" y1="325" x2="454.23" y2="151.56"/>
    <path class="cls-9" d="m161.51,313.26h0c-1.78,1.03-4.89.9-6.95-.29h0c-2.06-1.19-2.28-2.98-.5-4.01h0c1.78-1.03,4.89-.9,6.95.29h0c2.06,1.19,2.28,2.98.5,4.01Z"/>
    <path class="cls-11" d="m173.24,306.49h0c-1.78,1.03-4.89.9-6.95-.29h0c-2.06-1.19-2.28-2.98-.5-4.01h0c1.78-1.03,4.89-.9,6.95.29h0c2.06,1.19,2.28,2.98.5,4.01Z"/>
    <path class="cls-12" d="m184.96,299.72h0c-1.78,1.03-4.89.9-6.95-.29h0c-2.06-1.19-2.28-2.98-.5-4.01h0c1.78-1.03,4.89-.9,6.95.29h0c2.06,1.19,2.28,2.98.5,4.01Z"/>
    <line class="cls-1" x1="209.92" y1="292.12" x2="395.38" y2="399.2"/>
    <polygon class="cls-11" points="463.97 170.38 239.13 300.19 232.78 296.52 457.62 166.71 463.97 170.38"/>
    <polygon class="cls-11" points="462.7 187.98 253.74 308.62 247.39 304.96 456.35 184.31 462.7 187.98"/>
    <polygon class="cls-11" points="537.01 212.55 312.17 342.36 305.82 338.69 530.66 208.88 537.01 212.55"/>
    <polygon class="cls-11" points="507.79 195.68 282.96 325.49 276.61 321.83 501.44 192.02 507.79 195.68"/>
    <polygon class="cls-11" points="396.65 276.72 297.57 333.93 291.21 330.26 390.3 273.06 396.65 276.72"/>
    <polygon class="cls-11" points="425.86 293.59 326.78 350.79 320.43 347.13 419.51 289.92 425.86 293.59"/>
    <polygon class="cls-11" points="223.89 308.99 181.97 333.19 175.62 329.53 217.54 305.32 223.89 308.99"/>
    <polygon class="cls-11" points="238.5 317.43 196.58 341.63 190.23 337.96 232.15 313.76 238.5 317.43"/>
    <path class="cls-7" d="m626.77,265.6l-275.42,159.01c-6.9,3.99-18.96,3.49-26.93-1.12l-179.03-103.37c-7.97-4.6-8.84-11.56-1.93-15.55l275.42-159.01c6.9-3.99,18.96-3.49,26.93,1.12l179.03,103.37c7.97,4.6,8.84,11.56,1.93,15.55Z"/>
  </g>
  <g>
    <path class="cls-6" d="m289.13,249.66h0c-13.43,7.76-36.9,6.78-52.41-2.17h0c-15.51-8.96-17.2-22.5-3.76-30.26h0c13.43-7.76,36.9-6.78,52.41,2.17h0c15.51,8.96,17.2,22.5,3.76,30.26Z"/>
    <path class="cls-13" d="m271.57,221.91l14.09,8.13c2.7,1.56,2.99,3.92.66,5.27l-22.04,12.72c-2.34,1.35-6.43,1.18-9.13-.38l-18.72-10.81c-2.7-1.56-2.99-3.92-.66-5.27l5.7-3.29c1.26-.73,3.1-1.04,5.03-.86l1.87.18c1.93.18,3.77-.13,5.03-.86l9.03-5.21c2.34-1.35,6.43-1.18,9.13.38Z"/>
  </g>
  <polygon class="cls-4" points="692.45 267.69 562.9 342.48 413.31 256.11 542.86 181.32 692.45 267.69"/>
  <g>
    <g>
      <polygon class="cls-4" points="703.62 234.72 563.71 315.5 402.15 222.23 542.06 141.45 703.62 234.72"/>
      <polyline class="cls-3" points="414.98 214.82 402.15 222.23 416.97 230.78"/>
      <polyline class="cls-3" points="556.88 150 542.06 141.45 529.23 148.86"/>
      <polyline class="cls-3" points="690.79 242.13 703.62 234.72 688.8 226.17"/>
      <polyline class="cls-3" points="548.89 306.95 563.71 315.5 576.54 308.09"/>
    </g>
    <path class="cls-5" d="m567.7,202.56c4.78-.24,9.79.89,13.5,3.03l31.84,18.38c6.2,3.58,6.87,9.01,1.49,12.11l-8.52,4.92c-2.29,1.32-6.29,1.16-8.93-.36l-22.43-12.95c-2.64-1.52-6.63-1.69-8.92-.37l-14.85,8.57c-2.29,1.32-2.01,3.63.63,5.16l22.43,12.95c2.64,1.52,2.92,3.83.63,5.16l-8.52,4.92c-5.38,3.11-14.78,2.72-20.98-.86l-31.84-18.38c-3.71-2.14-5.65-5.03-5.24-7.79l3.79-25.45c.56-3.75,5.34-6.51,11.83-6.83l44.09-2.19Z"/>
  </g>
  <path class="cls-8" d="m420.28,438.28h0c-13.43,7.76-36.9,6.78-52.41-2.17h0c-15.51-8.96-17.2-22.5-3.76-30.26h0c13.43-7.76,36.9-6.78,52.41,2.17h0c15.51,8.96,17.2,22.5,3.76,30.26Z"/>
  <g>
    <path class="cls-6" d="m425.9,391.85h0c-16.12,9.31-44.28,8.14-62.89-2.61h0c-18.61-10.75-20.63-27-4.52-36.31h0c16.12-9.31,44.28-8.14,62.89,2.61h0c18.61,10.75,20.63,27,4.52,36.31Z"/>
    <g>
      <path class="cls-13" d="m422.01,379.06l-18.27,10.55c-3.64,2.1-10.05,1.73-14.05-.8-1.3-.82-2.63-1.85-3.94-3.14-3.7-3.64-4.71-6-4.1-7.82.5-1.5,2.36-2.67,4.9-3.06,2.32-.36,4.46-1.04,6.21-2.05s2.94-2.25,3.56-3.59c.68-1.47,2.69-2.54,5.3-2.83,3.16-.35,7.25.23,13.55,2.37,2.24.76,4.02,1.53,5.45,2.28,4.39,2.31,5.03,6.01,1.39,8.11Z"/>
      <path class="cls-13" d="m388.92,370.5h0c-4.16,2.4-11.43,2.1-16.23-.67h0c-4.8-2.77-5.33-6.97-1.17-9.37h0c4.16-2.4,11.43-2.1,16.23.67h0c4.8,2.77,5.33,6.97,1.17,9.37Z"/>
    </g>
  </g>
</svg>